<?xml version="1.0" encoding="UTF-8"?>
<svg width="25px" height="25px" viewBox="0 0 25 25" version="1.1" xmlns="http://www.w3.org/2000/svg" xmlns:xlink="http://www.w3.org/1999/xlink">
    <!-- Generator: sketchtool 63.1 (101010) - https://sketch.com -->
    <title>9D4083ED-A737-4BFD-BB54-6672AAFFC332</title>
    <desc>Created with sketchtool.</desc>
    <g id="Page-1" stroke="none" stroke-width="1" fill="none" fill-rule="evenodd">
        <g id="Restaurant-Page---1---About" transform="translate(-410.000000, -937.000000)" fill-rule="nonzero">
            <g id="Group-32" transform="translate(0.000000, 643.000000)">
                <g id="Group-51" transform="translate(391.000000, 270.000000)">
                    <g id="Group-47" transform="translate(10.000000, 15.000000)">
                        <g id="donut" transform="translate(9.000000, 9.000000)">
                            <path d="M12.5,0 C5.59643555,0 0,5.59643555 0,12.5 C0,19.4035645 5.59643555,25 12.5,25 C19.4035645,25 25,19.4035645 25,12.5 C25,5.59643555 19.4035645,0 12.5,0 Z M12.5,15.9456543 C10.6000488,15.9456543 9.0543457,14.3999512 9.0543457,12.5 C9.0543457,10.6000488 10.6000488,9.0543457 12.5,9.0543457 C14.3999512,9.0543457 15.9456543,10.6000488 15.9456543,12.5 C15.9456543,14.3999512 14.3999512,15.9456543 12.5,15.9456543 Z" id="Shape" fill="#FECE85"></path>
                            <path d="M12.5,0 C5.59658203,0 0,5.59658203 0,12.5 C0,13.8697266 0.2203125,15.1881348 0.627783203,16.4215332 C1.62880859,17.4169922 3.00756836,18.0332031 4.52719727,18.0332031 C6.87626953,18.0332031 8.88886719,16.561377 9.68964844,14.4909668 C9.28974609,13.9286133 9.0543457,13.2409668 9.0543457,12.5 C9.0543457,10.6000977 10.6001465,9.0543457 12.5,9.0543457 C14.3999023,9.0543457 15.9456543,10.6000977 15.9456543,12.5 C15.9456543,13.4477051 15.5613281,14.3073242 14.9395996,14.9305664 L14.9395996,17.8822754 C14.9395996,19.2690918 16.0678711,20.3973633 17.4546875,20.3973633 C18.1262207,20.3973633 18.7580078,20.135791 19.2328613,19.6604492 C19.7082031,19.1855957 19.9697754,18.5538086 19.9697754,17.8822754 L19.9697754,14.0090332 C19.9697754,13.7318848 20.1956055,13.5060059 20.4728027,13.5060059 C20.6539063,13.5060059 20.7730957,13.598584 20.828418,13.6533691 C20.883252,13.7086914 20.9757813,13.8279297 20.9757813,14.0089844 L20.9757813,15.3671387 C20.9757813,16.7539551 22.1040527,17.8822266 23.4908691,17.8822266 C23.5924805,17.8822266 23.6936035,17.8761719 23.7937012,17.863623 C24.5668945,16.2384277 25,14.4200195 25,12.5 C25,5.59658203 19.403418,0 12.5,0 Z" id="Path" fill="#FECE85"></path>
                            <path d="M25,12.5 C25,14.4200195 24.5668945,16.2384277 23.79375,17.8636719 C23.6936523,17.8762695 23.5925293,17.8822754 23.490918,17.8822754 C22.1041016,17.8822754 20.9758301,16.7540039 20.9758301,15.3671875 L20.9758301,14.0090332 C20.9758301,13.8279297 20.883252,13.7087402 20.8284668,13.653418 C20.7731445,13.598584 20.6539063,13.5060547 20.4728516,13.5060547 C20.1957031,13.5060547 19.9698242,13.7319336 19.9698242,14.009082 L19.9698242,17.8823242 C19.9698242,18.5538574 19.708252,19.1856445 19.2329102,19.660498 C18.7580566,20.1358398 18.1262695,20.3974121 17.4547363,20.3974121 C16.0679199,20.3974121 14.9396484,19.2691406 14.9396484,17.8823242 L14.9396484,14.9306152 C15.561377,14.307373 15.9457031,13.4477051 15.9457031,12.5000488 C15.9457031,10.6001465 14.3999512,9.05439453 12.5000488,9.05439453 C10.6001465,9.05439453 9.05439453,10.6001465 9.05439453,12.5000488 C9.05439453,13.2410156 9.28979492,13.9286133 9.68969727,14.4910156 C8.88891602,16.5614258 6.87631836,18.033252 4.52724609,18.033252 C3.00761719,18.033252 1.62885742,17.417041 0.627832031,16.421582 C0.2203125,15.1881348 -4.16333634e-15,13.8697266 -4.16333634e-15,12.5 C-4.16333634e-15,5.59658203 5.59658203,-1.38777878e-15 12.5,-1.38777878e-15 C19.403418,-1.38777878e-15 25,5.59658203 25,12.5 L25,12.5 Z" id="Path" fill="#FEC165"></path>
                            <path d="M25,12.5 L25,15.3671875 C25,15.7836914 24.8310059,16.1609375 24.5578613,16.434082 C24.4789062,16.5130371 24.3918457,16.582959 24.2973145,16.6418457 C24.063916,16.7907227 23.7872559,16.8762695 23.4909668,16.8762695 C22.6574707,16.8762695 21.9819336,16.2007324 21.9819336,15.3672363 L21.9819336,14.009082 C21.9819336,13.5925781 21.8129395,13.215332 21.5397949,12.9421875 C21.2666504,12.669043 20.8894043,12.5000488 20.4729004,12.5000488 C19.6394043,12.5000488 18.9638672,13.1755859 18.9638672,14.009082 L18.9638672,17.8823242 C18.9638672,18.2988281 18.794873,18.6760742 18.5217285,18.9492188 C18.248584,19.2223633 17.8713379,19.3913574 17.454834,19.3913574 C16.6213379,19.3913574 15.9458008,18.7158203 15.9458008,17.8823242 L15.9458008,12.5 C15.9458008,10.6000977 14.4000488,9.0543457 12.5001465,9.0543457 C10.6002441,9.0543457 9.05449219,10.6000977 9.05449219,12.5 C9.05449219,15.0004883 7.02783203,17.0271484 4.52734375,17.0271484 C2.02666016,17.0271484 -8.32667268e-15,15.0004883 -8.32667268e-15,12.5 C-8.32667268e-15,5.59658203 5.59658203,0 12.5,0 C19.403418,0 25,5.59658203 25,12.5 L25,12.5 Z" id="Path" fill="#FD8087"></path>
                            <path d="M2.51508789,12.5 C2.51508789,14.0327148 2.79072266,15.5010254 3.29575195,16.857666 C1.39384766,16.3214355 0,14.5734375 0,12.5 C0,5.59658203 5.59658203,0 12.5,0 C12.6589355,0 12.8173828,0.00302734375 12.9753418,0.00903320312 C13.0231445,0.010546875 13.0704102,0.0125488281 13.1176758,0.0150878906 C13.175,0.017578125 13.232373,0.02109375 13.2896973,0.0246582031 C13.3419922,0.0276855469 13.3943359,0.0312011719 13.4461426,0.0352050781 C13.5502441,0.0432617187 13.6539063,0.0522949219 13.7575195,0.0623535156 C7.44467773,0.693164062 2.51508789,6.02114258 2.51508789,12.5 L2.51508789,12.5 Z" id="Path" fill="#FE646F"></path>
                            <path d="M2.51508789,12.5 C2.51508789,6.02114258 7.44467773,0.693164063 13.7575684,0.0623535156 C13.344043,0.0211425781 12.9245605,0 12.5,0 C5.59658203,0 0,5.59658203 0,12.5 C0,19.403418 5.59658203,25 12.5,25 C12.9245605,25 13.344043,24.9788574 13.7575684,24.9376465 C7.44467773,24.3068359 2.51508789,18.9788574 2.51508789,12.5 Z" id="Path" fill="#FEC165"></path>
                            <path d="M13.7575684,0.0623535156 C13.6539551,0.0522949219 13.5503418,0.0432617187 13.4461914,0.0352050781 C13.3943848,0.0312011719 13.342041,0.0276855469 13.2897461,0.0246582031 C13.2324219,0.0211425781 13.1750488,0.0176269531 13.1177246,0.0150878906 C13.070459,0.0125488281 13.0231445,0.010546875 12.9753906,0.00903320312 C12.8173828,0.00302734375 12.6589355,0 12.5,0 C5.59658203,0 -2.77555756e-15,5.59658203 -2.77555756e-15,12.5 C-2.77555756e-15,14.5734375 1.39384766,16.3214355 3.29575195,16.857666 C2.79072266,15.5010254 2.51508789,14.0327148 2.51508789,12.5 C2.51508789,6.02114258 7.44467773,0.693164062 13.7575684,0.0623535156 L13.7575684,0.0623535156 Z" id="Path" fill="#FE646F"></path>
                            <g id="Group" transform="translate(1.904297, 2.343750)" fill="#FEF0AE">
                                <path d="M0.41796875,10.1143066 C0.209619141,10.1143066 0.0407226563,9.94541016 0.0407226563,9.73706055 L0.0407226563,8.22802734 C0.0407226563,8.01967773 0.209619141,7.85078125 0.41796875,7.85078125 C0.626318359,7.85078125 0.795214844,8.01967773 0.795214844,8.22802734 L0.795214844,9.73706055 C0.795214844,9.94541016 0.626318359,10.1143066 0.41796875,10.1143066 Z" id="Path"></path>
                                <path d="M20.3039551,8.20283203 C20.0956055,8.20283203 19.926709,8.03393555 19.926709,7.82558594 L19.926709,6.31655273 C19.926709,6.10820313 20.0956055,5.93930664 20.3039551,5.93930664 C20.5123047,5.93930664 20.6812012,6.10820313 20.6812012,6.31655273 L20.6812012,7.82558594 C20.6812012,8.03393555 20.5123047,8.20283203 20.3039551,8.20283203 Z" id="Path"></path>
                                <path d="M3.77041016,6.93256836 C3.59912109,6.93256836 3.44414063,6.81518555 3.40336914,6.64125977 L3.05932617,5.17192383 C3.01186523,4.96904297 3.13779297,4.76606445 3.34067383,4.71855469 C3.54370117,4.67114258 3.7465332,4.79702148 3.79399414,4.99990234 L4.13803711,6.46923828 C4.18549805,6.67211914 4.05957031,6.87509766 3.85668945,6.92260742 C3.82783203,6.92929687 3.79887695,6.93256836 3.77041016,6.93256836 L3.77041016,6.93256836 Z" id="Path"></path>
                                <path d="M9.61948242,4.90932617 C9.44819336,4.90932617 9.29321289,4.79194336 9.25244141,4.61801758 L8.90839844,3.14868164 C8.8609375,2.94580078 8.98686523,2.74282227 9.18974609,2.6953125 C9.39267578,2.64794922 9.59555664,2.7737793 9.64306641,2.97666016 L9.98710938,4.44599609 C10.0345703,4.64887695 9.90864258,4.85185547 9.70576172,4.89936523 C9.6769043,4.90610352 9.64794922,4.90932617 9.61948242,4.90932617 Z" id="Path"></path>
                                <path d="M15.9630859,3.85947266 C15.7993652,3.85947266 15.6486328,3.75209961 15.6008301,3.58696289 C15.5429199,3.38681641 15.658252,3.17763672 15.8583984,3.11972656 L17.3080078,2.70029297 C17.5081055,2.6425293 17.717334,2.75766602 17.7752441,2.95786133 C17.8331543,3.15800781 17.7178223,3.3671875 17.5176758,3.42509766 L16.0680664,3.84453125 C16.0331055,3.85463867 15.9977539,3.85947266 15.9630859,3.85947266 L15.9630859,3.85947266 Z" id="Path"></path>
                                <path d="M2.8706543,12.4018066 C2.80913086,12.4018066 2.74677734,12.3867187 2.6890625,12.3549805 C2.50654297,12.2544922 2.43999023,12.0250488 2.54047852,11.8425781 L3.26821289,10.5206055 C3.36870117,10.3380859 3.59804688,10.2714844 3.78061523,10.3720215 C3.96313477,10.4725098 4.0296875,10.7019531 3.92919922,10.8844238 L3.20146484,12.2063965 C3.13276367,12.33125 3.00375977,12.4018066 2.8706543,12.4018066 L2.8706543,12.4018066 Z" id="Path"></path>
                                <path d="M16.3238281,8.25454102 C16.2623047,8.25454102 16.1999512,8.23945313 16.1422363,8.20771484 C15.9597168,8.10722656 15.8931641,7.8777832 15.9936523,7.6953125 L16.7213867,6.37333984 C16.8219238,6.19082031 17.0513672,6.12426758 17.2337891,6.22475586 C17.4163086,6.32524414 17.4828613,6.5546875 17.382373,6.7371582 L16.6546387,8.05913086 C16.5859375,8.18398437 16.4569336,8.25454102 16.3238281,8.25454102 Z" id="Path"></path>
                                <path d="M5.69257812,2.32265625 C5.59658203,2.32265625 5.50058594,2.2862793 5.42700195,2.21337891 C5.27900391,2.06669922 5.27792969,1.82783203 5.42456055,1.67983398 L6.48676758,0.607910156 C6.63344727,0.459960937 6.87226562,0.458837891 7.0203125,0.60546875 C7.16831055,0.752148437 7.16938477,0.991015625 7.02275391,1.13901367 L5.96054688,2.2109375 C5.88681641,2.28540039 5.78969727,2.32265625 5.69257812,2.32265625 Z" id="Path"></path>
                                <path d="M13.6181152,1.70976563 C13.5380371,1.70976563 13.457373,1.684375 13.388916,1.63193359 L12.1911621,0.714013672 C12.0257812,0.587255859 11.9944336,0.350439453 12.1211914,0.185107422 C12.247998,0.0197265625 12.4847656,-0.0115722656 12.6500977,0.115136719 L13.8478516,1.03305664 C14.0132324,1.15981445 14.0445801,1.39663086 13.9178223,1.56196289 C13.8435547,1.65883789 13.7314453,1.70976563 13.6181152,1.70976563 L13.6181152,1.70976563 Z" id="Path"></path>
                            </g>
                        </g>
                    </g>
                </g>
            </g>
        </g>
    </g>
</svg>