<?xml version="1.0" encoding="UTF-8"?>
<svg width="30px" height="30px" viewBox="0 0 30 30" version="1.1" xmlns="http://www.w3.org/2000/svg" xmlns:xlink="http://www.w3.org/1999/xlink">
    <!-- Generator: sketchtool 63.1 (101010) - https://sketch.com -->
    <title>0BF3136E-5B63-47B6-A80A-8C9E76D97E23</title>
    <desc>Created with sketchtool.</desc>
    <g id="Page-1" stroke="none" stroke-width="1" fill="none" fill-rule="evenodd">
        <g id="Home" transform="translate(-1110.000000, -5144.000000)" fill="#282C3F" fill-rule="nonzero">
            <g id="Group-40" transform="translate(70.000000, 5127.000000)">
                <g id="Group-39" transform="translate(970.000000, 17.000000)">
                    <g id="facebook" transform="translate(70.000000, 0.000000)">
                        <path d="M26.25,0 L3.75,0 C1.681875,0 0,1.681875 0,3.75 L0,26.25 C0,28.318125 1.681875,30 3.75,30 L15,30 L15,19.6875 L11.25,19.6875 L11.25,15 L15,15 L15,11.25 C15,8.143125 17.518125,5.625 20.625,5.625 L24.375,5.625 L24.375,10.3125 L22.5,10.3125 C21.465,10.3125 20.625,10.215 20.625,11.25 L20.625,15 L25.3125,15 L23.4375,19.6875 L20.625,19.6875 L20.625,30 L26.25,30 C28.318125,30 30,28.318125 30,26.25 L30,3.75 C30,1.681875 28.318125,0 26.25,0 Z" id="Path"></path>
                    </g>
                </g>
            </g>
        </g>
    </g>
</svg>