<?xml version="1.0" encoding="UTF-8"?>
<svg width="40px" height="40px" viewBox="0 0 40 40" version="1.1" xmlns="http://www.w3.org/2000/svg" xmlns:xlink="http://www.w3.org/1999/xlink">
    <!-- Generator: sketchtool 63.1 (101010) - https://sketch.com -->
    <title>132DF6B0-F5CA-4FA8-9DEB-56686376417B</title>
    <desc>Created with sketchtool.</desc>
    <g id="Page-1" stroke="none" stroke-width="1" fill="none" fill-rule="evenodd">
        <g id="Sign-up---Inital-page---1" transform="translate(-826.000000, -189.000000)" fill-rule="nonzero">
            <g id="Group-7" transform="translate(682.000000, 0.000000)">
                <g id="Group-6" transform="translate(64.000000, 79.000000)">
                    <g id="Group-3" transform="translate(0.000000, 105.000000)">
                        <g id="Group">
                            <g id="hello" transform="translate(80.000000, 5.000000)">
                                <path d="M39.3026073,23.9196449 L27.2179543,36.5676849 C25.044085,38.7415542 22.0959609,39.9624945 19.022282,39.9624945 L16.7405643,39.9624945 C10.8736122,39.9624945 6.11669356,35.2060588 6.11669356,29.3386238 C6.11669356,26.5112255 5.37221777,23.734532 3.95892103,21.2862127 L0.345195314,15.0269822 C-0.208050801,14.0689022 -0.0771840304,12.8956889 0.600329179,12.0869065 C1.73748576,10.7263267 3.90435297,10.8909967 4.80641617,12.4514984 C10.0654736,21.5607432 3.97550071,11.0119639 9.95255476,21.3650869 C5.8345976,5.99709453 5.85246502,6.44788468 5.99757744,5.61439374 C5.99757744,5.53085148 6.10260888,5.11458891 6.24788227,4.82404214 C7.43389256,2.38787591 10.9687441,2.76969138 11.6563983,5.33350503 C11.8710487,6.13480243 15.2458179,18.7307694 15.4528224,19.503495 C15.4528224,1.9538264 15.4401059,2.84116106 15.4761627,2.57129865 C15.6768895,1.0672161 16.9890985,0.0465196763 18.2013465,0.0465196763 C19.8799986,-0.0353324185 21.2476609,1.29876819 21.2476609,2.93991477 L21.2476609,20.002495 C26.0917436,3.10571154 25.6898071,4.29051457 26.0477189,3.74475346 C26.8013698,2.55053381 28.5060987,2.04936076 29.8650688,2.81114058 C30.9427478,3.35215314 31.6239633,4.74130472 31.2614639,6.09649211 L27.0424995,21.8407466 L27.0424995,25.2637255 C27.0424995,26.4114255 28.4292366,26.9860803 29.240514,26.1748029 C33.1356113,21.6654527 32.787599,22.0568458 32.9741607,21.8825982 C34.9897182,20.0146481 37.7305159,19.7399566 38.6370057,20.1932418 C40.0694576,20.8091043 40.5042314,22.7180207 39.3026073,23.9196449 Z" id="Path" fill="#F9CFAC"></path>
                                <path d="M39.8442637,21.4503998 L26.0316221,35.7869914 C24.2955851,37.3137704 22.1474706,38.283601 19.8665577,38.578172 C12.6772557,39.5128311 7.40443547,34.1864892 7.40443547,28.0508819 C7.40443547,25.2234836 6.65995968,22.4467901 5.24666294,19.9984708 C0.371754991,11.7076665 0.654736274,12.1937086 0.600329179,12.0869065 C1.23397868,11.3288289 2.26545995,10.9832312 3.25951621,11.256313 C3.81783281,11.4095542 4.13767571,11.6644467 4.50057747,12.0273484 C7.23574128,16.6085707 9.96060315,21.3650869 9.95255476,21.3650869 C10.6428649,21.3650869 11.1453257,20.7102701 10.9666515,20.0434613 C7.12193709,5.69528002 7.30326724,6.58704129 7.32958547,5.96771792 C7.35171853,5.06163052 7.88130239,4.09670942 8.74529672,3.59263895 C9.10779607,3.37975911 9.50989348,3.26861089 9.54289187,3.26828895 C10.5376725,3.5105454 11.3722902,4.27514215 11.6563983,5.33350503 C12.0348334,6.74607742 15.0437229,17.976555 15.4528224,19.503495 C15.4528224,1.33088126 15.4334258,2.80727735 15.4978933,2.42723252 C15.5760432,1.99221721 15.7589025,1.58279577 15.968724,1.28919061 C16.217902,0.925644978 16.5529564,0.660611597 16.5610852,0.660611597 C18.5253746,-0.85433627 21.2476609,0.582220308 21.2476609,2.93991477 L21.2476609,20.002495 C25.9470336,3.61050636 25.6950386,4.47281054 25.7386608,4.35965022 C26.4248663,2.40429462 29.0444553,1.71969883 30.602301,3.39303895 C30.7013767,3.50515298 31.046733,2.02191576 25.7547576,22.0821982 L25.7547576,25.5051771 C25.7547576,26.4899777 26.8538453,27.4408142 28.1233979,26.9466432 C28.9762854,26.6144058 29.4542791,25.927315 30.1081301,25.1703642 C33.0500569,21.7651722 32.6984229,22.1656599 32.9027715,21.950768 C33.7593613,21.1222671 34.8766383,20.4780742 36.1572977,20.181974 C36.6967006,20.0585118 37.5494272,19.9492952 38.0712041,20.0290547 C38.7797036,20.1381908 39.3636945,20.566365 39.6945637,21.1397321 C39.7860739,21.2929734 39.8404005,21.4423514 39.8442637,21.4503998 L39.8442637,21.4503998 Z" id="Path" fill="#FFE4CC"></path>
                                <path d="M18.0283062,36.6626559 C17.6727284,36.6626559 17.3844352,36.3743627 17.3844352,36.0187849 C17.3844352,30.8756243 21.2231134,26.4858731 26.3135571,25.8077965 C26.6672032,25.7614378 26.9899435,26.0085232 27.0367852,26.3609621 C27.0837877,26.7134815 26.8360584,27.0372681 26.4836195,27.0841902 C22.0303666,27.6773563 18.6720966,31.5184489 18.6720966,36.0187849 C18.6721771,36.3743627 18.3838839,36.6626559 18.0283062,36.6626559 Z" id="Path" fill="#F9CFAC"></path>
                            </g>
                        </g>
                    </g>
                </g>
            </g>
        </g>
    </g>
</svg>