<?xml version="1.0" encoding="UTF-8"?>
<svg width="14px" height="26px" viewBox="0 0 14 26" version="1.1" xmlns="http://www.w3.org/2000/svg" xmlns:xlink="http://www.w3.org/1999/xlink">
    <!-- Generator: sketchtool 63.1 (101010) - https://sketch.com -->
    <title>B8F286A7-29FE-4598-96F4-58EE0390B771</title>
    <desc>Created with sketchtool.</desc>
    <g id="Page-1" stroke="none" stroke-width="1" fill="none" fill-rule="evenodd">
        <g id="Restaurant-Page---1---About" transform="translate(-700.000000, -936.000000)" fill-rule="nonzero">
            <g id="Group-32" transform="translate(0.000000, 643.000000)">
                <g id="Group-53" transform="translate(676.000000, 270.000000)">
                    <g id="Group-46" transform="translate(10.000000, 15.000000)">
                        <g id="hydroalcoholic-gel" transform="translate(14.000000, 8.000000)">
                            <polygon id="Path" fill="#91DEB6" points="5.13669601 2.32209136 8.17637005 2.32209136 8.17637005 5.2533032 5.13669601 5.2533032"></polygon>
                            <polygon id="Path" fill="#6ED5A1" points="5.13685066 2.32209136 6.44540804 2.32209136 6.44540804 5.2533032 5.13685066 5.2533032"></polygon>
                            <path d="M10.7275517,7.96779681 L10.7275517,5.86226901 C10.7275517,5.35258942 10.3144778,4.93951543 9.80479816,4.93951543 L3.50831945,4.93951543 C2.99863986,4.93951543 2.58556587,5.35258942 2.58556587,5.86226901 L2.58556587,7.96779681 L10.7275517,7.96779681 Z" id="Path" fill="#B9EACF"></path>
                            <path d="M4.81708304,4.93925767 C4.30724879,4.93925767 3.8942779,5.35274407 3.8942779,5.86206281 L3.8942779,7.96779681 L2.58572052,7.96779681 L2.58572052,5.86206281 C2.58572052,5.35274407 2.99869141,4.93925767 3.50852566,4.93925767 L4.81708304,4.93925767 Z" id="Path" fill="#91DEB6"></path>
                            <path d="M13.3060552,10.9074114 L13.3060552,12.5117139 L11.0356174,16.3968158 L13.3060552,21.4136569 L13.3060552,25.3336069 C13.3060552,25.7015743 13.007681,25.9999484 12.6397137,25.9999484 L0.67361012,25.9999484 C0.305642795,25.9999484 0.00726861765,25.7015743 0.00726861765,25.3336069 L0.00726861765,21.4136569 L0.801197557,16.8515941 L0.00726861765,12.5117139 L0.00726861765,10.9074114 C0.00726861765,9.26016734 1.34252915,7.92490681 2.98977318,7.92490681 L10.3235506,7.92490681 C11.9707947,7.92490681 13.3060552,9.26016734 13.3060552,10.9074114 L13.3060552,10.9074114 Z" id="Path" fill="#91DEB6"></path>
                            <path d="M1.315826,10.9074114 L1.315826,25.3336585 C1.315826,25.7016258 1.61420017,26 1.9821675,26 L0.67361012,26 C0.305642795,26 0.00726861765,25.7016258 0.00726861765,25.3336585 L0.00726861765,21.4137085 L0.801197557,16.8516456 L0.00726861765,12.533262 L0.00726861765,10.9074114 C0.00726861765,9.26016734 1.34252915,7.92490681 2.98977318,7.92490681 L4.29833056,7.92490681 C2.65108653,7.92490681 1.315826,9.26016734 1.315826,10.9074114 L1.315826,10.9074114 Z" id="Path" fill="#6ED5A1"></path>
                            <polygon id="Path" fill="#A6E7F0" points="0.781866127 12.5117139 13.3060552 12.5117139 13.3060552 21.4137085 0.781866127 21.4137085"></polygon>
                            <circle id="Oval" fill="#F7F8F4" cx="6.65655881" cy="16.9625307" r="5.03447141"></circle>
                            <path d="M13.079697,2.49689904 L2.89311603,2.49689904 C2.70825601,2.49689904 2.55839876,2.3470418 2.55839876,2.16218177 L2.55839876,0.334717265 C2.55839876,0.149857245 2.70825601,-3.60822483e-16 2.89311603,-3.60822483e-16 L13.079697,0.597057657 C13.2645571,0.597057657 13.4144143,0.746914902 13.4144143,0.931774923 L13.4144143,2.16213022 C13.4144143,2.3470418 13.2645571,2.49689904 13.079697,2.49689904 Z" id="Path" fill="#B9EACF"></path>
                            <path d="M9.66664287,16.4426957 L9.66664287,17.4822111 C9.66664287,17.6790309 9.50750654,17.8381156 9.31068681,17.8381156 L7.53209216,17.8381156 L7.53209216,19.6167103 C7.53209216,19.81353 7.37295583,19.9726663 7.17670315,19.9726663 L6.13667222,19.9726663 C5.94036799,19.9726663 5.78071616,19.81353 5.78071616,19.6167103 L5.78071616,17.8381156 L4.0021215,17.8381156 C3.80581727,17.8381156 3.64673249,17.6789793 3.64673249,17.4822111 L3.64673249,16.4426957 C3.64673249,16.245876 3.80586882,16.0867396 4.0021215,16.0867396 L5.78071616,16.0867396 L5.78071616,14.308145 C5.78071616,14.1118407 5.94036799,13.9521889 6.13667222,13.9521889 L7.17670315,13.9521889 C7.37300738,13.9521889 7.53209216,14.1118407 7.53209216,14.308145 L7.53209216,16.0867396 L9.31068681,16.0867396 C9.50750654,16.0867396 9.66664287,16.245876 9.66664287,16.4426957 Z" id="Path" fill="#E27F86"></path>
                            <polygon id="Path" fill="#6BD9E7" points="0.00726861765 12.5117139 1.315826 12.5117139 1.315826 21.4137085 0.00726861765 21.4137085"></polygon>
                            <path d="M4.20151876,2.49695059 L2.89296138,2.49695059 C2.70820446,2.49695059 2.55850186,2.347248 2.55850186,2.16192402 L2.55850186,0.334665715 C2.55850186,0.149908795 2.70820446,0.000206201919 2.89296138,0.000206201919 L4.00418352,0.065108256 C3.92098105,0.125319216 3.86705924,0.223677532 3.86705924,0.334665715 L3.86705924,2.16197557 C3.86705924,2.347248 4.01671029,2.49695059 4.20151876,2.49695059 Z" id="Path" fill="#91DEB6"></path>
                        </g>
                    </g>
                </g>
            </g>
        </g>
    </g>
</svg>