<?xml version="1.0" encoding="UTF-8"?>
<svg width="16px" height="16px" viewBox="0 0 16 16" version="1.1" xmlns="http://www.w3.org/2000/svg" xmlns:xlink="http://www.w3.org/1999/xlink">
    <!-- Generator: sketchtool 63.1 (101010) - https://sketch.com -->
    <title>89395333-DFB0-45BE-BE7D-E886E286EDA2</title>
    <desc>Created with sketchtool.</desc>
    <g id="Page-1" stroke="none" stroke-width="1" fill="none" fill-rule="evenodd">
        <g id="Home" transform="translate(-787.000000, -53.000000)" fill="#282C3F" fill-rule="nonzero">
            <g id="Group-31">
                <g id="Group-30" transform="translate(70.000000, 28.000000)">
                    <g id="Group-29" transform="translate(717.000000, 6.000000)">
                        <g id="Group-37" transform="translate(0.000000, 17.000000)">
                            <g id="search" transform="translate(0.000000, 2.000000)">
                                <path d="M7.05540625,0.01925 C3.16509375,0.01925 0,3.1756875 0,7.05540625 C0,10.935125 3.165125,14.0915625 7.05540625,14.0915625 C10.9456875,14.0915625 14.1108438,10.935125 14.1108438,7.05540625 C14.1108438,3.1756875 10.9457187,0.01925 7.05540625,0.01925 Z M7.05540625,12.9349062 C3.80278125,12.9349062 1.156625,10.2972187 1.156625,7.055375 C1.156625,3.81334375 3.80278125,1.17584375 7.05540625,1.17584375 C10.3080312,1.17584375 12.9541875,3.81334375 12.9541875,7.055375 C12.9541875,10.2972188 10.3080625,12.9349062 7.05540625,12.9349062 Z" id="Shape"></path>
                                <path d="M15.8295938,14.992375 L12.032,11.2140625 C11.8055,10.9889063 11.4394063,10.989875 11.2140625,11.2161875 C10.9889063,11.4426875 10.989875,11.80875 11.2161875,12.034125 L15.0137813,15.8124375 C15.12675,15.924625 15.2740313,15.9807188 15.4216875,15.9807188 C15.5703125,15.9807188 15.71875,15.9238438 15.8317188,15.8103125 C16.056875,15.5837813 16.0559063,15.2177188 15.8295938,14.992375 Z" id="Path"></path>
                            </g>
                        </g>
                    </g>
                </g>
            </g>
        </g>
    </g>
</svg>