<?xml version="1.0" encoding="UTF-8"?>
<svg width="15px" height="16px" viewBox="0 0 15 16" version="1.1" xmlns="http://www.w3.org/2000/svg" xmlns:xlink="http://www.w3.org/1999/xlink">
    <!-- Generator: sketchtool 63.1 (101010) - https://sketch.com -->
    <title>4121C28F-0803-4A05-9519-A5381FA11DE0</title>
    <desc>Created with sketchtool.</desc>
    <g id="Page-1" stroke="none" stroke-width="1" fill="none" fill-rule="evenodd">
        <g id="Home" transform="translate(-922.000000, -53.000000)" fill="#282C3F" fill-rule="nonzero">
            <g id="Group-31">
                <g id="Group-30" transform="translate(70.000000, 28.000000)">
                    <g id="Group-29" transform="translate(717.000000, 6.000000)">
                        <g id="Group-27" transform="translate(135.000000, 17.000000)">
                            <g id="shopping-bag-(2)" transform="translate(0.000000, 2.000000)">
                                <path d="M14.5291925,15.5627329 L13.336646,4.45217391 C13.3167702,4.27329193 13.157764,4.13416149 12.978882,4.13416149 L10.7726708,4.13416149 L10.7726708,3.45838509 C10.7726708,1.55031056 9.22236025,0 7.31428571,0 C5.40621118,0 3.85590062,1.55031056 3.85590062,3.45838509 L3.85590062,4.13416149 L1.59006211,4.13416149 C1.41118012,4.13416149 1.25217391,4.27329193 1.23229814,4.45217391 L0.0397515528,15.5627329 C0.0198757764,15.6621118 0.0596273292,15.7614907 0.119254658,15.8409938 C0.178881988,15.9204969 0.27826087,15.9602484 0.377639752,15.9602484 L14.1913043,15.9602484 C14.2906832,15.9602484 14.3900621,15.9204969 14.4496894,15.8409938 C14.5093168,15.7614907 14.5490683,15.6621118 14.5291925,15.5627329 Z M10.4149068,6.14161491 C10.5937888,6.14161491 10.7329193,6.28074534 10.7329193,6.45962733 C10.7329193,6.63850932 10.5937888,6.77763975 10.4149068,6.77763975 C10.2360248,6.77763975 10.0968944,6.63850932 10.0968944,6.45962733 C10.0968944,6.28074534 10.2360248,6.14161491 10.4149068,6.14161491 Z M4.57142857,3.45838509 C4.57142857,1.94782609 5.80372671,0.71552795 7.31428571,0.71552795 C8.82484472,0.71552795 10.0571429,1.94782609 10.0571429,3.45838509 L10.0571429,4.13416149 L4.57142857,4.13416149 L4.57142857,3.45838509 Z M4.2136646,6.14161491 C4.39254658,6.14161491 4.53167702,6.28074534 4.53167702,6.45962733 C4.53167702,6.63850932 4.39254658,6.77763975 4.2136646,6.77763975 C4.03478261,6.77763975 3.89565217,6.63850932 3.89565217,6.45962733 C3.89565217,6.28074534 4.03478261,6.14161491 4.2136646,6.14161491 Z M0.795031056,15.2248447 L1.90807453,4.82981366 L3.85590062,4.82981366 L3.85590062,5.48571429 C3.45838509,5.62484472 3.18012422,6.00248447 3.18012422,6.43975155 C3.18012422,6.99627329 3.63726708,7.45341615 4.19378882,7.45341615 C4.75031056,7.45341615 5.20745342,6.99627329 5.20745342,6.43975155 C5.20745342,6.00248447 4.92919255,5.62484472 4.53167702,5.48571429 L4.53167702,4.82981366 L10.0173913,4.82981366 L10.0173913,5.48571429 C9.61987578,5.62484472 9.34161491,6.00248447 9.34161491,6.43975155 C9.34161491,6.99627329 9.79875776,7.45341615 10.3552795,7.45341615 C10.9118012,7.45341615 11.3689441,6.99627329 11.3689441,6.43975155 C11.3689441,6.00248447 11.0906832,5.62484472 10.6931677,5.48571429 L10.6931677,4.82981366 L12.7204969,4.82981366 L13.8335404,15.2248447 L0.795031056,15.2248447 Z" id="Shape"></path>
                            </g>
                        </g>
                    </g>
                </g>
            </g>
        </g>
    </g>
</svg>