<?xml version="1.0" encoding="UTF-8"?>
<svg width="14px" height="25px" viewBox="0 0 14 25" version="1.1" xmlns="http://www.w3.org/2000/svg" xmlns:xlink="http://www.w3.org/1999/xlink">
    <!-- Generator: sketchtool 63.1 (101010) - https://sketch.com -->
    <title>43008807-9E20-4881-8C16-7EBC6C817947</title>
    <desc>Created with sketchtool.</desc>
    <g id="Page-1" stroke="none" stroke-width="1" fill="none" fill-rule="evenodd">
        <g id="Restaurant-Page---1---About" transform="translate(-94.000000, -937.000000)" fill-rule="nonzero">
            <g id="Group-32" transform="translate(0.000000, 643.000000)">
                <g id="Group-52" transform="translate(70.000000, 270.000000)">
                    <g id="Group-44" transform="translate(10.000000, 15.000000)">
                        <g id="thermometer" transform="translate(14.000000, 9.000000)">
                            <g id="Group" transform="translate(9.472656, 2.246094)" fill="#4F667A">
                                <path d="M0.414746094,0.735351563 L4.11464844,0.735351563 C4.31694336,0.735351563 4.48085938,0.571386719 4.48085938,0.369140625 C4.48085938,0.166894531 4.31694336,0.0029296875 4.11464844,0.0029296875 L0.414746094,0.0029296875 C0.212451172,0.0029296875 0.0485351563,0.166894531 0.0485351563,0.369140625 C0.0485351563,0.571386719 0.2125,0.735351563 0.414746094,0.735351563 Z" id="Path"></path>
                                <path d="M0.414746094,2.4262207 L2.26469727,2.4262207 C2.46699219,2.4262207 2.6309082,2.26225586 2.6309082,2.06000977 C2.6309082,1.85776367 2.46699219,1.69379883 2.26469727,1.69379883 L0.414746094,1.69379883 C0.212451172,1.69379883 0.0485351563,1.85776367 0.0485351563,2.06000977 C0.0485351563,2.26225586 0.2125,2.4262207 0.414746094,2.4262207 Z" id="Path"></path>
                                <path d="M4.11469727,3.4027832 L0.414794922,3.4027832 C0.2125,3.4027832 0.0485839844,3.56674805 0.0485839844,3.76899414 C0.0485839844,3.97124023 0.2125,4.13520508 0.414794922,4.13520508 L4.11469727,4.13520508 C4.31699219,4.13520508 4.4809082,3.97124023 4.4809082,3.76899414 C4.4809082,3.56674805 4.31694336,3.4027832 4.11469727,3.4027832 Z" id="Path"></path>
                                <path d="M0.414746094,5.82607422 L2.26469727,5.82607422 C2.46699219,5.82607422 2.6309082,5.66210938 2.6309082,5.45986328 C2.6309082,5.25761719 2.46699219,5.09365234 2.26469727,5.09365234 L0.414746094,5.09365234 C0.212451172,5.09365234 0.0485351563,5.25761719 0.0485351563,5.45986328 C0.0485351563,5.66210938 0.2125,5.82607422 0.414746094,5.82607422 Z" id="Path"></path>
                                <path d="M4.11469727,6.77749023 L0.414794922,6.77749023 C0.2125,6.77749023 0.0485839844,6.94145508 0.0485839844,7.14370117 C0.0485839844,7.34594727 0.2125,7.50991211 0.414794922,7.50991211 L4.11469727,7.50991211 C4.31699219,7.50991211 4.4809082,7.34594727 4.4809082,7.14370117 C4.4809082,6.94145508 4.31694336,6.77749023 4.11469727,6.77749023 Z" id="Path"></path>
                                <path d="M0.414746094,9.20078125 L2.26469727,9.20078125 C2.46699219,9.20078125 2.6309082,9.03681641 2.6309082,8.83457031 C2.6309082,8.63232422 2.46699219,8.46835938 2.26469727,8.46835938 L0.414746094,8.46835938 C0.212451172,8.46835938 0.0485351563,8.63232422 0.0485351563,8.83457031 C0.0485351563,9.03681641 0.2125,9.20078125 0.414746094,9.20078125 Z" id="Path"></path>
                                <path d="M4.11469727,10.1840332 L0.414794922,10.1840332 C0.2125,10.1840332 0.0485839844,10.347998 0.0485839844,10.5502441 C0.0485839844,10.7524902 0.2125,10.9164551 0.414794922,10.9164551 L4.11469727,10.9164551 C4.31699219,10.9164551 4.4809082,10.7524902 4.4809082,10.5502441 C4.4809082,10.347998 4.31694336,10.1840332 4.11469727,10.1840332 L4.11469727,10.1840332 Z" id="Path"></path>
                                <path d="M2.26469727,11.8749023 L0.414746094,11.8749023 C0.212451172,11.8749023 0.0485351562,12.0388672 0.0485351562,12.2411133 C0.0485351562,12.4433594 0.212451172,12.6073242 0.414746094,12.6073242 L2.26469727,12.6073242 C2.46699219,12.6073242 2.6309082,12.4433594 2.6309082,12.2411133 C2.6309082,12.0388672 2.46699219,11.8749023 2.26469727,11.8749023 Z" id="Path"></path>
                            </g>
                            <path d="M10.4365723,19.7861328 C10.4365723,21.1923828 9.88481445,22.5102539 8.88383789,23.4980469 C7.90043945,24.4677734 6.60356445,24.9990234 5.22416992,24.9990234 C5.19926758,24.9990234 5.17436523,24.9990234 5.14946289,24.9985352 C4.92875977,24.9951172 4.71049805,24.9785156 4.49467773,24.9477539 C3.39213867,24.7924805 2.36772461,24.2866211 1.55961914,23.4863281 C0.593798828,22.5302734 0.0439941406,21.2607422 0.0117675781,19.9125977 C-0.0316894531,18.0854492 0.884814453,16.3730469 2.41606445,15.3930664 L2.41606445,2.80761719 C2.41606445,1.51269531 3.29692383,0.419921875 4.49125977,0.0971679688 C4.7246582,0.0336914062 4.97026367,0 5.22368164,0 C6.7715332,0 8.03129883,1.25927734 8.03129883,2.80761719 L8.03129883,15.3930664 C9.52006836,16.347168 10.4365723,18.0107422 10.4365723,19.7861328 Z" id="Path" fill="#E9F5FF"></path>
                            <path d="M10.4365723,19.7861328 C10.4365723,21.1923828 9.88481445,22.5102539 8.88383789,23.4980469 C7.90043945,24.4677734 6.60356445,24.9990234 5.22416992,24.9990234 C4.31157227,24.9990234 3.75932617,24.9990234 3.75932617,24.9990234 C4.00737305,24.9990234 4.25297852,24.9819336 4.49467773,24.9477539 C5.59526367,24.793457 6.6128418,24.293457 7.41899414,23.4980469 C8.42045898,22.5102539 8.97172852,21.1923828 8.97172852,19.7861328 C8.97172852,18.0107422 8.05522461,17.8208008 6.56645508,16.8666992 L6.56645508,2.80761719 C6.56645508,1.51269531 5.68510742,0.419921875 4.49125977,0.0971679688 C4.7246582,0.0336914062 4.97026367,0 5.22368164,0 C6.7715332,0 8.03129883,1.25927734 8.03129883,2.80761719 L8.03129883,15.3930664 C9.52006836,16.347168 10.4365723,18.0107422 10.4365723,19.7861328 Z" id="Path" fill="#CDEAF7"></path>
                            <g id="Group" transform="translate(1.464844, 1.464844)">
                                <path d="M7.50688477,18.3286133 C7.50688477,19.3393555 7.11040039,20.2871094 6.39018555,20.9970703 C5.68364258,21.6943359 4.74907227,22.0766602 3.75541992,22.0766602 C3.73833008,22.0766602 3.72172852,22.0766602 3.70512695,22.0761719 C3.51762695,22.0737305 3.33208008,22.0566406 3.14946289,22.0268555 C2.39018555,21.9013672 1.68608398,21.5429688 1.12553711,20.987793 C0.430224609,20.2998047 0.0342285156,19.3876953 0.0112792969,18.4204102 C-0.0209472656,17.0546875 0.691943359,15.7783203 1.87163086,15.0888672 C2.20708008,14.8930664 2.41606445,14.5292969 2.41606445,14.140625 L2.41606445,1.35009766 C2.41606445,0.829589844 2.71391602,0.376953125 3.14848633,0.154296875 C3.3315918,0.0600585938 3.53911133,0.00732421875 3.75883789,0.00732421875 C4.49907227,0.00732421875 5.10112305,0.609863281 5.10112305,1.35009766 L5.10112305,14.140625 C5.10112305,14.5292969 5.31010742,14.8930664 5.64555664,15.0888672 C6.79350586,15.7597656 7.50688477,17.0009766 7.50688477,18.3286133 Z" id="Path" fill="#FF6E6E"></path>
                                <path d="M7.50688477,18.3286133 C7.50688477,19.3393555 7.11040039,20.2871094 6.39018555,20.9970703 C5.68364258,21.6943359 4.74907227,22.0766602 3.75541992,22.0766602 C3.73833008,22.0766602 3.72172852,22.0766602 3.70512695,22.0761719 C3.51762695,22.0737305 3.33208008,22.0566406 3.14946289,22.0268555 C3.9097168,21.902832 4.61088867,21.5483398 5.16948242,20.9970703 C5.88969727,20.2871094 6.28618164,19.3393555 6.28618164,18.3286133 C6.28618164,17.0009766 5.57280273,15.7597656 4.42485352,15.0888672 C4.0894043,14.8930664 3.88041992,14.5292969 3.88041992,14.140625 L3.88041992,1.35009766 C3.88041992,0.829589844 3.58256836,0.377441406 3.14848633,0.154296875 C3.3315918,0.0600585938 3.53911133,0.00732421875 3.75883789,0.00732421875 C4.49907227,0.00732421875 5.10112305,0.609863281 5.10112305,1.35009766 L5.10112305,14.140625 C5.10112305,14.5292969 5.31010742,14.8930664 5.64555664,15.0888672 C6.79350586,15.7597656 7.50688477,17.0009766 7.50688477,18.3286133 L7.50688477,18.3286133 Z" id="Path" fill="#F44E92"></path>
                            </g>
                            <path d="M6.5659668,2.81494141 L6.5659668,6.01513672 L3.8809082,6.01513672 L3.8809082,2.81494141 C3.8809082,2.29443359 4.17875977,1.84179687 4.61333008,1.61914062 C4.79643555,1.52490234 5.00395508,1.47216797 5.22368164,1.47216797 C5.96391602,1.47216797 6.5659668,2.07470703 6.5659668,2.81494141 Z" id="Path" fill="#4F667A"></path>
                            <path d="M6.5659668,2.81494141 L6.5659668,6.01513672 L5.34526367,6.01513672 L5.34526367,2.81494141 C5.34526367,2.29443359 5.04741211,1.84228516 4.61333008,1.61914062 C4.79643555,1.52490234 5.00395508,1.47216797 5.22368164,1.47216797 C5.96391602,1.47216797 6.5659668,2.07470703 6.5659668,2.81494141 Z" id="Path" fill="#3A5366"></path>
                        </g>
                    </g>
                </g>
            </g>
        </g>
    </g>
</svg>