<?xml version="1.0" encoding="UTF-8"?>
<svg width="30px" height="30px" viewBox="0 0 30 30" version="1.1" xmlns="http://www.w3.org/2000/svg" xmlns:xlink="http://www.w3.org/1999/xlink">
    <!-- Generator: sketchtool 63.1 (101010) - https://sketch.com -->
    <title>7D31A962-D3F3-4150-A29A-97B8DB0E1D31</title>
    <desc>Created with sketchtool.</desc>
    <g id="Page-1" stroke="none" stroke-width="1" fill="none" fill-rule="evenodd">
        <g id="Home" transform="translate(-1040.000000, -5144.000000)" fill="#282C3F" fill-rule="nonzero">
            <g id="Group-40" transform="translate(70.000000, 5127.000000)">
                <g id="Group-39" transform="translate(970.000000, 17.000000)">
                    <g id="twitter">
                        <path d="M22.4316832,0.0118811881 L7.50891089,0.0118811881 C3.37425743,0.0118811881 0,3.38613861 0,7.52079208 L0,22.4673267 C0,26.5782178 3.37425743,29.9524752 7.50891089,29.9524752 L22.4554455,29.9524752 C26.590099,29.9524752 29.9643564,26.5782178 29.9643564,22.4435644 L29.9643564,7.52079208 C29.9405941,3.38613861 26.5663366,0.0118811881 22.4316832,0.0118811881 Z M22.4079208,11.2277228 C22.4079208,11.3940594 22.4079208,11.560396 22.4079208,11.7267327 C22.4079208,16.7168317 18.5584158,22.4673267 11.5009901,22.4673267 C9.33861386,22.4673267 7.31881188,21.849505 5.63168317,20.780198 C5.94059406,20.8039604 6.22574257,20.8277228 6.53465347,20.8277228 C8.34059406,20.8277228 9.98019802,20.2336634 11.2871287,19.2118812 C9.6,19.1881188 8.1980198,18.0950495 7.6990099,16.5980198 C7.93663366,16.6455446 8.17425743,16.6693069 8.41188119,16.6693069 C8.76831683,16.6693069 9.12475248,16.6217822 9.43366337,16.5267327 C7.72277228,16.170297 6.41584158,14.649505 6.41584158,12.819802 L6.41584158,12.7722772 C6.89108911,13.0574257 7.50891089,13.2237624 8.12673267,13.2475248 C7.1049505,12.5821782 6.41584158,11.4178218 6.41584158,10.1108911 C6.41584158,9.42178218 6.60594059,8.78019802 6.93861386,8.20990099 C8.83960396,10.4910891 11.6435644,11.9881188 14.8277228,12.1544554 C14.7564356,11.8693069 14.7326733,11.5841584 14.7326733,11.2990099 C14.7326733,9.20792079 16.4435644,7.52079208 18.5584158,7.52079208 C19.6514851,7.52079208 20.649505,7.97227723 21.3623762,8.70891089 C22.2415842,8.54257426 23.049505,8.23366337 23.7861386,7.78217822 C23.5009901,8.66138614 22.8831683,9.3980198 22.0990099,9.87326733 C22.8831683,9.77821782 23.619802,9.58811881 24.3089109,9.27920792 C23.7861386,10.039604 23.1445545,10.7049505 22.4079208,11.2277228 Z" id="Shape"></path>
                    </g>
                </g>
            </g>
        </g>
    </g>
</svg>