<?xml version="1.0" encoding="UTF-8"?>
<svg width="25px" height="25px" viewBox="0 0 25 25" version="1.1" xmlns="http://www.w3.org/2000/svg" xmlns:xlink="http://www.w3.org/1999/xlink">
    <!-- Generator: sketchtool 63.1 (101010) - https://sketch.com -->
    <title>5B01C442-D0B8-42F1-89CB-4252FDF864DF</title>
    <desc>Created with sketchtool.</desc>
    <g id="Page-1" stroke="none" stroke-width="1" fill="none" fill-rule="evenodd">
        <g id="Restaurant-Page---1---About" transform="translate(-960.000000, -937.000000)" fill-rule="nonzero">
            <g id="Group-32" transform="translate(0.000000, 643.000000)">
                <g id="Group-54" transform="translate(941.000000, 270.000000)">
                    <g id="Group-45" transform="translate(10.000000, 15.000000)">
                        <g id="vaccine" transform="translate(9.000000, 9.000000)">
                            <path d="M3.82804873,19.2375183 L0.302124023,22.7632522 C0.0411987305,23.0243683 -0.0604629395,23.4048843 0.0354766602,23.7611771 L0.295448291,24.725914 C0.369453418,25.0007629 0.713348389,25.0926972 0.914573682,24.8912812 L5.19828799,20.6077576 L3.82804873,19.2375183 Z" id="Path" fill="#E3E2E1"></path>
                            <path d="M13.7348175,3.11546328 L21.320343,10.7009888 C21.5579986,10.9386444 21.5579986,11.3241196 21.320343,11.5619659 L20.8833694,11.9987488 C20.6457138,12.2364044 20.2602387,12.2364044 20.022583,11.9987488 L12.4370575,4.41322324 C12.1992111,4.17556763 12.1992111,3.79009248 12.4370575,3.55243682 L12.8738403,3.11546328 C13.1116867,2.87780762 13.4971619,2.87780762 13.7348175,3.11546328 Z" id="Path" fill="#88C8E9"></path>
                            <path d="M19.0124512,0.174903857 L24.2609024,5.42335508 C24.4939804,5.65643311 24.4939804,6.03446963 24.2609024,6.26754761 L23.8073349,6.72111514 C23.5742569,6.95419312 23.1962204,6.95419312 22.9631424,6.72111514 L17.7146912,1.47266387 C17.4816132,1.23958589 17.4816132,0.861549365 17.7146912,0.628471387 L18.1682587,0.174903857 C18.4013367,-0.0583648438 18.7793731,-0.0583648438 19.0124512,0.174903857 Z" id="Path" fill="#88C8E9"></path>
                            <polygon id="Path" fill="#ADE9F0" points="18.5400009 7.92064668 16.5153503 5.89599609 19.3265915 3.08475493 21.3512421 5.10940552"></polygon>
                            <polygon id="Path" fill="#98DAE3" points="20.5873489 5.87348936 18.5626983 3.84883882 19.3267822 3.08475493 21.3514328 5.10940552"></polygon>
                            <path d="M3.98292539,15.9601211 L8.47568511,20.4528809 C8.91742705,20.8946228 9.6338272,20.8946228 10.0755691,20.4528809 L19.2762375,11.2522125 L13.183403,5.1595688 L3.98292539,14.3602371 C3.5411835,14.8019791 3.5411835,15.5183792 3.98292539,15.9601211 L3.98292539,15.9601211 Z" id="Path" fill="#ADE9F0"></path>
                            <polygon id="Path" fill="#98DAE3" points="19.2762375 11.2522125 18.3456421 12.1828079 12.2529983 6.09035493 13.1835938 5.1595688"></polygon>
                            <path d="M10.1385117,8.20446016 L3.98292539,14.3602371 C3.54099272,14.8019791 3.54099272,15.5183792 3.98292539,15.9601211 L8.47568511,20.4528809 C8.91742705,20.8946228 9.6338272,20.8946228 10.0755691,20.4528809 L18.7911987,11.7372513 C15.5632019,11.4278793 12.6623154,9.00936128 10.1385117,8.20446016 Z" id="Path" fill="#7BD0A7"></path>
                            <g id="Group" transform="translate(3.613281, 9.130859)" fill="#68BF97">
                                <path d="M14.7321701,3.05213926 L15.1779175,2.60639189 C14.8174286,2.5718689 14.4611358,2.51083374 14.1090393,2.4290085 L14.7321701,3.05213926 Z" id="Path"></path>
                                <path d="M5.56926729,0.0297546387 L0.369644141,5.22937773 C-0.0722885254,5.67111968 -0.0722885254,6.38751982 0.369644141,6.82926177 L4.86240386,11.3220215 C5.3041458,11.7637634 6.02054595,11.7637634 6.46228789,11.3220215 L7.13005068,10.6542587 C4.66480254,8.95690918 4.84409331,4.03690337 5.56926729,0.0297546387 Z" id="Path"></path>
                                <path d="M7.09972383,3.87840273 C7.09972383,4.07848359 6.93759917,4.2406082 6.73751831,4.2406082 C6.53743745,4.2406082 6.37512207,4.07848359 6.37512207,3.87840273 C6.37512207,3.67832183 6.53743745,3.51600645 6.73751831,3.51600645 C6.93759917,3.51600645 7.09972383,3.67832183 7.09972383,3.87840273 Z" id="Path"></path>
                                <path d="M6.46858213,1.43985747 C6.46858213,1.63993838 6.30645752,1.80225371 6.10637666,1.80225371 C5.90610503,1.80225371 5.74398042,1.63993838 5.74398042,1.43985747 C5.74398042,1.23977661 5.90610503,1.07765195 6.10637666,1.07765195 C6.30645752,1.07765195 6.46858213,1.23977661 6.46858213,1.43985747 Z" id="Path"></path>
                                <path d="M10.6843948,2.58197783 C10.6843948,2.78205869 10.5220795,2.94418335 10.3219986,2.94418335 C10.1219177,2.94418335 9.95979307,2.78205869 9.95979307,2.58197783 C9.95979307,2.38189697 10.1219177,2.21958159 10.3219986,2.21958159 C10.5220795,2.21958159 10.6843948,2.38189697 10.6843948,2.58197783 Z" id="Path"></path>
                            </g>
                            <path d="M4.25567627,16.232872 L8.20293428,20.18013 L7.11536406,21.2675095 C6.76822661,21.6148376 6.20536807,21.6148376 5.85803984,21.2675095 L3.16810605,18.5775757 C2.82096865,18.2304382 2.82096865,17.6675796 3.16810605,17.3202515 L4.25567627,16.232872 Z" id="Path" fill="#495059"></path>
                            <path d="M7.01942441,14.9677276 C7.33432769,14.6530151 7.26909639,14.0773773 6.87370303,13.6819839 C6.47830962,13.2865906 5.90267183,13.2213593 5.58795928,13.5362625 C5.27305605,13.850975 5.33828735,14.4268036 5.73368071,14.8220063 C6.12907412,15.2173996 6.70471191,15.2826309 7.01942441,14.9677276 L7.01942441,14.9677276 Z" id="Path" fill="#FFFFFF"></path>
                            <path d="M9.46769717,17.4165726 C9.15298462,17.7312851 9.21821592,18.3069229 9.61360933,18.7023163 C10.008812,19.0977097 10.5844498,19.162941 10.899353,18.8480377 C11.2142563,18.5333252 11.1488342,17.9576874 10.7536316,17.562294 C10.3582382,17.1669006 9.78260039,17.1016693 9.46769717,17.4165726 L9.46769717,17.4165726 Z" id="Path" fill="#FFFFFF"></path>
                            <path d="M7.28950498,14.4668579 C7.1958542,14.4668579 7.10201265,14.4311905 7.03048706,14.3596649 C6.88762666,14.2166138 6.88762666,13.9846802 7.03048706,13.841629 L7.28340146,13.5889053 C7.42645264,13.4460449 7.65819551,13.4460449 7.80124663,13.5889053 C7.9442978,13.7319565 7.9442978,13.9638901 7.80124663,14.1069412 L7.54852295,14.3596649 C7.47699736,14.4311905 7.38315581,14.4668579 7.28950498,14.4668579 L7.28950498,14.4668579 Z" id="Path" fill="#495059"></path>
                            <path d="M10.3349686,17.5125122 C10.2413178,17.5125122 10.1476669,17.4766541 10.0761414,17.4053192 C9.93309023,17.2620773 9.93309023,17.0303345 10.0761414,16.8872833 L10.328865,16.6345596 C10.4719162,16.4915085 10.7038498,16.4915085 10.8467102,16.6345596 C10.9897613,16.7776108 10.9897613,17.0093536 10.8467102,17.1524048 L10.5939865,17.4053192 C10.5224609,17.4766541 10.4288101,17.5125122 10.3349686,17.5125122 Z" id="Path" fill="#495059"></path>
                            <path d="M9.1506958,16.4041519 C8.85467529,16.4041519 8.56971738,16.2870407 8.35914609,16.0764694 C8.13045503,15.8477783 8.01200869,15.5313492 8.03432466,15.2080536 C8.04805757,15.0062561 8.22257998,14.8540497 8.42475889,14.8677826 C8.6265564,14.8817062 8.77876279,15.0564194 8.76502988,15.2582168 C8.75720977,15.3701782 8.79821777,15.4796601 8.87718203,15.5586243 C8.95614624,15.6375885 9.0658188,15.6784058 9.17739868,15.6707764 C9.37938691,15.6574249 9.55410005,15.8092499 9.56802368,16.0110474 C9.58175659,16.2128448 9.4295502,16.387558 9.22775269,16.4014816 C9.20200347,16.4031982 9.1762543,16.4041519 9.1506958,16.4041519 Z" id="Path" fill="#495059"></path>
                            <path d="M12.5871658,15.934372 C12.493515,15.934372 12.3998642,15.8985138 12.3283386,15.8269882 L11.6542816,15.1529312 C11.5112305,15.0098801 11.5112305,14.7781372 11.6542816,14.635086 C11.7973328,14.4922256 12.0290756,14.4920349 12.1721268,14.635086 L12.8461838,15.3093338 C12.9892349,15.4521942 12.9892349,15.6841278 12.8461838,15.827179 C12.7746582,15.8985138 12.6810074,15.934372 12.5871658,15.934372 L12.5871658,15.934372 Z" id="Path" fill="#495059"></path>
                            <path d="M14.0775681,14.4439697 C13.9839172,14.4439697 13.8900757,14.4083023 13.8187408,14.3367768 L13.1446838,13.6627197 C13.0016327,13.5196686 13.0016327,13.2879257 13.1446838,13.1448746 C13.287735,13.0018234 13.5194778,13.0018234 13.662529,13.1448746 L14.336586,13.8189316 C14.4794464,13.9619827 14.4794464,14.1937256 14.336586,14.3367768 C14.2650604,14.4083023 14.1712188,14.4439697 14.0775681,14.4439697 L14.0775681,14.4439697 Z" id="Path" fill="#495059"></path>
                        </g>
                    </g>
                </g>
            </g>
        </g>
    </g>
</svg>